<svg xmlns="http://www.w3.org/2000/svg" xmlns:xlink="http://www.w3.org/1999/xlink" width="168" height="68" viewBox="0 0 168 68">
  <defs>
    <clipPath id="clip-up9_sponsored_link">
      <rect width="168" height="68"/>
    </clipPath>
  </defs>
  <g id="up9_sponsored_link" clip-path="url(#clip-up9_sponsored_link)">
    <g id="Group_4717" data-name="Group 4717" transform="translate(-1982.938 -5521)">
      <g id="Rectangle_2" data-name="Rectangle 2" transform="translate(1982.938 5521)" fill="#f5f5f5" stroke="#c4c4c4" stroke-width="3">
        <rect width="168" height="68" rx="10" stroke="none"/>
        <rect x="1.5" y="1.5" width="165" height="65" rx="8.5" fill="none"/>
      </g>
      <g id="Group_4712" data-name="Group 4712" transform="translate(1998.938 5531.625)">
        <g id="Group_4711" data-name="Group 4711" transform="translate(0 0.875)">
          <g id="logo" transform="translate(0 0)">
            <g id="Group_4690_2_" transform="translate(0 0)">
              <path id="Path_2985_1_" d="M0,31.758a4.008,4.008,0,0,0,2,3.47l16,9.241a4,4,0,0,0,4,0l16-9.234a4,4,0,0,0,2-3.469V13.252a4.006,4.006,0,0,0-2-3.468L22,.54A4,4,0,0,0,18,.543l-16,9.286A4.005,4.005,0,0,0,0,13.294Z" transform="translate(0 -0.004)"/>
              <path id="Path_2986_2_" d="M43.244,112.794a.5.5,0,0,1,0,.868L41,114.931l-.017-.01L37.5,116.94a1,1,0,0,1-1,0l-4.5-2.6a4,4,0,0,1-2-3.462V95.863a4,4,0,0,1,2.028-3.48l.226-.128a.5.5,0,0,1,.683.189.494.494,0,0,1,.065.246v18.5a.5.5,0,0,0,.248.432l2.5,1.46a.5.5,0,0,0,.5,0l.032-.018a.5.5,0,0,0,0-.867l-2.036-1.176a.5.5,0,0,1-.249-.433V91.814a1,1,0,0,1,.507-.87l1.747-.99a.5.5,0,0,1,.683.189.494.494,0,0,1,.065.245v18.5a.5.5,0,0,0,.249.433Z" transform="translate(-27.006 -80.889)" fill="#fff"/>
              <path id="Path_2987_2_" d="M113.933,58.482a.5.5,0,0,1-.187-.684.494.494,0,0,1,.189-.188l4.988-2.932a.5.5,0,0,0,.246-.433V36.613a1,1,0,0,0-1-1,.99.99,0,0,0-.5.137l-4.5,2.632-2.493,1.415a1,1,0,0,0-.507.873V59.511a.5.5,0,0,0,.249.435l6.241,3.624a1,1,0,0,0,1.015-.008l1.763-1.061a.5.5,0,0,0-.009-.866Zm-.521-16.739,2-1.2a.5.5,0,0,1,.756.431V52.534a.5.5,0,0,1-.253.437l-2,1.137a.5.5,0,0,1-.747-.437v-11.5A.509.509,0,0,1,113.412,41.743Z" transform="translate(-99.177 -32.045)" fill="#fff"/>
              <path id="Path_2988_2_" d="M124.677,42.535v17.6a.5.5,0,0,1-.249.433l-4,2.324a.5.5,0,0,0,0,.866l5.505,3.188a.5.5,0,0,1,0,.866l-10.5,6.088a.5.5,0,0,0,0,.868l6.258,3.585a4,4,0,0,0,3.977,0l13.5-7.753a3,3,0,0,0,1.507-2.6V52.369a4,4,0,0,0-2-3.466l-12.5-7.235a1,1,0,0,0-1.5.867Zm12.25,21.551-8.751-5.08a1,1,0,0,1-.5-.866V51.478a.5.5,0,0,1,.75-.433l7.256,4.212a4,4,0,0,1,1.993,3.463v4.933a.5.5,0,0,1-.5.5.492.492,0,0,1-.251-.068Z" transform="translate(-103.685 -37.375)" fill="#627ef7"/>
              <path id="Path_2989_2_" d="M48.128,287.2l-2.24,1.274-.017-.01-3.482,2.027a1,1,0,0,1-1,0l-4.5-2.613a4,4,0,0,1-1.454-1.458l2.517-1.458a.508.508,0,0,0,.189.2l2.5,1.465a.5.5,0,0,0,.5,0l.032-.018a.5.5,0,0,0,0-.87l-2.035-1.181a.5.5,0,0,1-.18-.18l2.987-1.729a.506.506,0,0,0,.193.2l6,3.479a.5.5,0,0,1,0,.87Z" transform="translate(-31.895 -254.42)" fill="#8f9bb2"/>
              <path id="Path_2991_2_" d="M140.3,239.511a2.991,2.991,0,0,1-1.118,1.128l-13.506,7.772a3.991,3.991,0,0,1-3.976,0l-6.258-3.593a.5.5,0,0,1,0-.87l8.249-4.794,2.252-1.309a.5.5,0,0,0,0-.868l-2.252-1.308-3.253-1.889a.5.5,0,0,1,0-.868l3.254-1.893.75-.437a.5.5,0,0,0,.17-.164Z" transform="translate(-103.698 -207.442)" fill="#3b4c95"/>
              <path id="Path_2992_2_" d="M120.05,260.636l-.267.16-1.495.9a1,1,0,0,1-1.015.008l-6.24-3.622a.518.518,0,0,1-.1-.082.475.475,0,0,1-.077-.1l0,0,1.372-.795,2.265-1.313a.391.391,0,0,0-.048.043.307.307,0,0,0-.041.047.018.018,0,0,0-.006.009.242.242,0,0,0-.028.043.15.15,0,0,0-.01.018c0,.01-.01.02-.014.03a.189.189,0,0,0-.012.03.194.194,0,0,0-.011.034.041.041,0,0,0,0,.018.372.372,0,0,0-.009.046.5.5,0,0,0,.245.511l5.236,3,.258.147a.5.5,0,0,1,.187.683A.512.512,0,0,1,120.05,260.636Z" transform="translate(-99.789 -230.239)" fill="#8f9bb2"/>
            </g>
          </g>
        </g>
        <text id="Sponsored_by" data-name="Sponsored by" transform="translate(92.203 14.375)" font-size="12" font-family="Montserrat-Medium, Montserrat, sans-serif" font-weight="500"><tspan x="-41.652" y="0">Sponsored by</tspan></text>
        <text id="up9.com" transform="translate(92 36.375)" fill="#627ef7" font-size="18" font-family="Montserrat-ExtraBold, Montserrat, sans-serif" font-weight="800" letter-spacing="0.012em"><tspan x="-42.048" y="0">up9.com</tspan></text>
      </g>
    </g>
  </g>
</svg>
