<svg xmlns="http://www.w3.org/2000/svg" xmlns:xlink="http://www.w3.org/1999/xlink" width="168" height="68" viewBox="0 0 168 68">
  <defs>
    <clipPath id="clip-up9_sponsored_link">
      <rect width="168" height="68"/>
    </clipPath>
  </defs>
  <g id="up9_sponsored_link" clip-path="url(#clip-up9_sponsored_link)">
    <g id="Group_4717" data-name="Group 4717" transform="translate(-1982.938 -5521)">
      <g id="Rectangle_2" data-name="Rectangle 2" transform="translate(1982.938 5521)" fill="#f5f5f5" stroke="#c4c4c4" stroke-width="3">
        <rect width="168" height="68" rx="10" stroke="none"/>
        <rect x="1.5" y="1.5" width="165" height="65" rx="8.5" fill="none"/>
      </g>
      <g id="Group_4712" data-name="Group 4712" transform="translate(1998.938 5531.625)">
        <g id="Group_4711" data-name="Group 4711" transform="translate(0 0.875)">
          <g id="logo" transform="translate(0 0)">
            <g id="Group_4690_2_" transform="translate(0 0)">
              <path id="Path_2985_1_" d="M0,31.758a4.008,4.008,0,0,0,2,3.47l16,9.241a4,4,0,0,0,4,0l16-9.234a4,4,0,0,0,2-3.469V13.252a4.006,4.006,0,0,0-2-3.468L22,.54A4,4,0,0,0,18,.543l-16,9.286A4.005,4.005,0,0,0,0,13.294Z" transform="translate(0 -0.004)"/>
              <path id="Path_2986_2_" d="M43.244,112.794a.5.5,0,0,1,0,.868L41,114.931l-.017-.01L37.5,116.94a1,1,0,0,1-1,0l-4.5-2.6a4,4,0,0,1-2-3.462V95.863a4,4,0,0,1,2.028-3.48l.226-.128a.5.5,0,0,1,.683.189.494.494,0,0,1,.065.246v18.5a.5.5,0,0,0,.248.432l2.5,1.46a.5.5,0,0,0,.5,0l.032-.018a.5.5,0,0,0,0-.867l-2.036-1.176a.5.5,0,0,1-.249-.433V91.814a1,1,0,0,1,.507-.87l1.747-.99a.5.5,0,0,1,.683.189.494.494,0,0,1,.065.245v18.5a.5.5,0,0,0,.249.433Z" transform="translate(-27.006 -80.889)" fill="#fff"/>
              <path id="Path_2987_2_" d="M113.933,58.482a.5.5,0,0,1-.187-.684.494.494,0,0,1,.189-.188l4.988-2.932a.5.5,0,0,0,.246-.433V36.613a1,1,0,0,0-1-1,.99.99,0,0,0-.5.137l-4.5,2.632-2.493,1.415a1,1,0,0,0-.507.873V59.511a.5.5,0,0,0,.249.435l6.241,3.624a1,1,0,0,0,1.015-.008l1.763-1.061a.5.5,0,0,0-.009-.866Zm-.521-16.739,2-1.2a.5.5,0,0,1,.756.431V52.534a.5.5,0,0,1-.253.437l-2,1.137a.5.5,0,0,1-.747-.437v-11.5A.509.509,0,0,1,113.412,41.743Z" transform="translate(-99.177 -32.045)" fill="#fff"/>
              <path id="Path_2988_2_" d="M124.677,42.535v17.6a.5.5,0,0,1-.249.433l-4,2.324a.5.5,0,0,0,0,.866l5.505,3.188a.5.5,0,0,1,0,.866l-10.5,6.088a.5.5,0,0,0,0,.868l6.258,3.585a4,4,0,0,0,3.977,0l13.5-7.753a3,3,0,0,0,1.507-2.6V52.369a4,4,0,0,0-2-3.466l-12.5-7.235a1,1,0,0,0-1.5.867Zm12.25,21.551-8.751-5.08a1,1,0,0,1-.5-.866V51.478a.5.5,0,0,1,.75-.433l7.256,4.212a4,4,0,0,1,1.993,3.463v4.933a.5.5,0,0,1-.5.5.492.492,0,0,1-.251-.068Z" transform="translate(-103.685 -37.375)" fill="#627ef7"/>
              <path id="Path_2989_2_" d="M48.128,287.2l-2.24,1.274-.017-.01-3.482,2.027a1,1,0,0,1-1,0l-4.5-2.613a4,4,0,0,1-1.454-1.458l2.517-1.458a.508.508,0,0,0,.189.2l2.5,1.465a.5.5,0,0,0,.5,0l.032-.018a.5.5,0,0,0,0-.87l-2.035-1.181a.5.5,0,0,1-.18-.18l2.987-1.729a.506.506,0,0,0,.193.2l6,3.479a.5.5,0,0,1,0,.87Z" transform="translate(-31.895 -254.42)" fill="#8f9bb2"/>
              <path id="Path_2991_2_" d="M140.3,239.511a2.991,2.991,0,0,1-1.118,1.128l-13.506,7.772a3.991,3.991,0,0,1-3.976,0l-6.258-3.593a.5.5,0,0,1,0-.87l8.249-4.794,2.252-1.309a.5.5,0,0,0,0-.868l-2.252-1.308-3.253-1.889a.5.5,0,0,1,0-.868l3.254-1.893.75-.437a.5.5,0,0,0,.17-.164Z" transform="translate(-103.698 -207.442)" fill="#3b4c95"/>
              <path id="Path_2992_2_" d="M120.05,260.636l-.267.16-1.495.9a1,1,0,0,1-1.015.008l-6.24-3.622a.518.518,0,0,1-.1-.082.475.475,0,0,1-.077-.1l0,0,1.372-.795,2.265-1.313a.391.391,0,0,0-.048.043.307.307,0,0,0-.041.047.018.018,0,0,0-.006.009.242.242,0,0,0-.028.043.15.15,0,0,0-.01.018c0,.01-.01.02-.014.03a.189.189,0,0,0-.012.03.194.194,0,0,0-.011.034.041.041,0,0,0,0,.018.372.372,0,0,0-.009.046.5.5,0,0,0,.245.511l5.236,3,.258.147a.5.5,0,0,1,.187.683A.512.512,0,0,1,120.05,260.636Z" transform="translate(-99.789 -230.239)" fill="#8f9bb2"/>
            </g>
          </g>
        </g>
        <path id="Path_3005" data-name="Path 3005" d="M-37.944.1c2.22,0,3.252-1.1,3.252-2.388,0-3.084-5.088-1.8-5.088-3.852,0-.732.612-1.332,2.04-1.332a4.338,4.338,0,0,1,2.3.684l.4-.96a4.942,4.942,0,0,0-2.7-.744c-2.208,0-3.216,1.1-3.216,2.4,0,3.12,5.088,1.824,5.088,3.876,0,.732-.624,1.3-2.076,1.3A4.323,4.323,0,0,1-40.716-1.9l-.444.936A4.986,4.986,0,0,0-37.944.1Zm8.208-6.516A2.709,2.709,0,0,0-32-5.352V-6.36h-1.1V2.328h1.152V-.96A2.716,2.716,0,0,0-29.736.072,3.09,3.09,0,0,0-26.52-3.18,3.087,3.087,0,0,0-29.736-6.42Zm-.1,5.484A2.1,2.1,0,0,1-31.968-3.18a2.1,2.1,0,0,1,2.136-2.232A2.1,2.1,0,0,1-27.684-3.18,2.106,2.106,0,0,1-29.832-.936ZM-22.2.072A3.164,3.164,0,0,0-18.9-3.18a3.155,3.155,0,0,0-3.3-3.24,3.165,3.165,0,0,0-3.312,3.24A3.174,3.174,0,0,0-22.2.072Zm0-1.008A2.106,2.106,0,0,1-24.348-3.18,2.1,2.1,0,0,1-22.2-5.412,2.087,2.087,0,0,1-20.064-3.18,2.1,2.1,0,0,1-22.2-.936Zm8.292-5.484A2.726,2.726,0,0,0-16.2-5.4v-.96h-1.1V0h1.152V-3.276a1.889,1.889,0,0,1,2.016-2.112c1.092,0,1.716.612,1.716,1.86V0h1.152V-3.66A2.464,2.464,0,0,0-13.908-6.42Zm6.6,6.492C-5.616.072-4.56-.66-4.56-1.812c0-2.472-4.032-1.248-4.032-2.748,0-.5.492-.876,1.5-.876a3.321,3.321,0,0,1,1.836.5l.492-.912A4.628,4.628,0,0,0-7.08-6.42c-1.632,0-2.652.768-2.652,1.908,0,2.532,4.02,1.3,4.02,2.724,0,.54-.444.864-1.512.864a4.087,4.087,0,0,1-2.232-.66l-.48.912A4.59,4.59,0,0,0-7.308.072ZM-.4.072A3.164,3.164,0,0,0,2.9-3.18,3.155,3.155,0,0,0-.4-6.42,3.165,3.165,0,0,0-3.708-3.18,3.174,3.174,0,0,0-.4.072Zm0-1.008A2.106,2.106,0,0,1-2.544-3.18,2.1,2.1,0,0,1-.4-5.412,2.087,2.087,0,0,1,1.74-3.18,2.1,2.1,0,0,1-.4-.936Zm6-4.356V-6.36H4.5V0H5.652V-3.168a1.9,1.9,0,0,1,2-2.148A2.034,2.034,0,0,1,7.92-5.3V-6.42A2.428,2.428,0,0,0,5.6-5.292Zm9.42,2.148A3.067,3.067,0,0,0,11.88-6.42,3.115,3.115,0,0,0,8.688-3.18,3.184,3.184,0,0,0,12.108.072,3.192,3.192,0,0,0,14.616-.96L13.98-1.7a2.375,2.375,0,0,1-1.836.768A2.154,2.154,0,0,1,9.84-2.8H15C15.012-2.9,15.024-3.048,15.024-3.144Zm-3.144-2.3a1.983,1.983,0,0,1,2.04,1.824H9.84A1.982,1.982,0,0,1,11.88-5.448ZM21.468-8.9v3.5a2.706,2.706,0,0,0-2.22-1.02,3.087,3.087,0,0,0-3.216,3.24A3.1,3.1,0,0,0,19.248.072a2.687,2.687,0,0,0,2.268-1.08V0h1.1V-8.9ZM19.344-.936A2.106,2.106,0,0,1,17.2-3.18a2.1,2.1,0,0,1,2.148-2.232A2.093,2.093,0,0,1,21.48-3.18,2.1,2.1,0,0,1,19.344-.936ZM31.4-6.42a2.706,2.706,0,0,0-2.22,1.02V-8.9H28.032V0h1.1V-1.008A2.687,2.687,0,0,0,31.4.072,3.1,3.1,0,0,0,34.62-3.18,3.087,3.087,0,0,0,31.4-6.42Zm-.1,5.484A2.1,2.1,0,0,1,29.172-3.18a2.093,2.093,0,0,1,2.136-2.232A2.1,2.1,0,0,1,33.456-3.18,2.106,2.106,0,0,1,31.308-.936ZM40.536-6.36l-2.2,5.088L36.12-6.36h-1.2L37.728-.012l-.2.444c-.312.732-.66.984-1.212.984a1.627,1.627,0,0,1-1.14-.468l-.492.864a2.388,2.388,0,0,0,1.632.588c.972,0,1.7-.42,2.268-1.764l3.084-7Z" transform="translate(92.203 14.375)"/>
        <path id="Path_3006" data-name="Path 3006" d="M-34.11-9.756v4.7c0,1.638-.828,2.3-1.836,2.3-1.026,0-1.62-.594-1.62-2.106v-4.9h-3.42V-4.3c0,3.1,1.746,4.464,4.14,4.464a3.845,3.845,0,0,0,2.9-1.206V0h3.258V-9.756Zm11.97-.162a3.52,3.52,0,0,0-2.88,1.134v-.972h-3.258V3.492h3.42V-.864A3.637,3.637,0,0,0-22.14.162a4.731,4.731,0,0,0,4.788-5.04A4.731,4.731,0,0,0-22.14-9.918Zm-.72,7.362a2.076,2.076,0,0,1-2.052-2.322A2.076,2.076,0,0,1-22.86-7.2a2.076,2.076,0,0,1,2.052,2.322A2.076,2.076,0,0,1-22.86-2.556Zm11.25-10.3c-2.736,0-4.932,1.674-4.932,4.3A4.047,4.047,0,0,0-12.2-4.572,4.231,4.231,0,0,0-9.378-5.49a2.959,2.959,0,0,1-3.168,2.916,3.9,3.9,0,0,1-2.322-.648l-1.3,2.556a7.049,7.049,0,0,0,3.69.918c4,0,6.714-2.5,6.714-6.894C-5.76-10.728-8.064-12.852-11.61-12.852Zm.252,5.724a1.563,1.563,0,0,1-1.728-1.584,1.561,1.561,0,0,1,1.71-1.6A1.584,1.584,0,0,1-9.612-8.73,1.6,1.6,0,0,1-11.358-7.128ZM-2.646.162A1.981,1.981,0,0,0-.594-1.872,1.947,1.947,0,0,0-2.646-3.888,1.956,1.956,0,0,0-4.7-1.872,1.992,1.992,0,0,0-2.646.162Zm8.8,0c2.214,0,3.906-.99,4.572-2.682L8.082-3.87A2.115,2.115,0,0,1,6.138-2.556,2.1,2.1,0,0,1,4.014-4.9,2.093,2.093,0,0,1,6.138-7.2,2.115,2.115,0,0,1,8.082-5.886l2.646-1.35C10.062-8.928,8.37-9.918,6.156-9.918,2.88-9.918.558-7.83.558-4.9.558-1.926,2.88.162,6.156.162Zm10.872,0c3.222,0,5.508-2.106,5.508-5.058,0-2.934-2.286-5.022-5.508-5.022-3.186,0-5.508,2.088-5.508,5.022C11.52-1.944,13.842.162,17.028.162Zm0-2.718A2.082,2.082,0,0,1,14.976-4.9a2.06,2.06,0,0,1,2.052-2.3A2.051,2.051,0,0,1,19.08-4.9,2.073,2.073,0,0,1,17.028-2.556ZM37.044-9.918a4.225,4.225,0,0,0-3.384,1.53,3.572,3.572,0,0,0-3.15-1.53A3.88,3.88,0,0,0,27.594-8.73V-9.756H24.336V0h3.42V-4.842c0-1.512.72-2.178,1.728-2.178.918,0,1.476.594,1.476,2V0h3.42V-4.842c0-1.512.72-2.178,1.71-2.178.9,0,1.476.594,1.476,2V0h3.42V-5.58C40.986-8.6,39.312-9.918,37.044-9.918Z" transform="translate(92 36.375)" fill="#627ef7"/>
      </g>
    </g>
  </g>
</svg>
